<svg width="16" height="4" viewBox="0 0 16 4" fill="none" xmlns="http://www.w3.org/2000/svg">
<path d="M2.16671 1.99984H2.17504M8.00004 1.99984H8.00837M13.8334 1.99984H13.8417M3.00004 1.99984C3.00004 2.46007 2.62694 2.83317 2.16671 2.83317C1.70647 2.83317 1.33337 2.46007 1.33337 1.99984C1.33337 1.5396 1.70647 1.1665 2.16671 1.1665C2.62694 1.1665 3.00004 1.5396 3.00004 1.99984ZM8.83337 1.99984C8.83337 2.46007 8.46028 2.83317 8.00004 2.83317C7.5398 2.83317 7.16671 2.46007 7.16671 1.99984C7.16671 1.5396 7.5398 1.1665 8.00004 1.1665C8.46028 1.1665 8.83337 1.5396 8.83337 1.99984ZM14.6667 1.99984C14.6667 2.46007 14.2936 2.83317 13.8334 2.83317C13.3731 2.83317 13 2.46007 13 1.99984C13 1.5396 13.3731 1.1665 13.8334 1.1665C14.2936 1.1665 14.6667 1.5396 14.6667 1.99984Z" stroke="#101010" stroke-width="2" stroke-linecap="round" stroke-linejoin="round"/>
</svg>
