<svg width="16" height="16" viewBox="0 0 16 16" fill="none" xmlns="http://www.w3.org/2000/svg">
<path d="M8.00004 3.00016V1.3335M8.00004 3.00016C7.07957 3.00016 6.33337 3.74635 6.33337 4.66683C6.33337 5.5873 7.07957 6.3335 8.00004 6.3335M8.00004 3.00016C8.92052 3.00016 9.66671 3.74635 9.66671 4.66683C9.66671 5.5873 8.92052 6.3335 8.00004 6.3335M3.00004 13.0002C3.92052 13.0002 4.66671 12.254 4.66671 11.3335C4.66671 10.413 3.92052 9.66683 3.00004 9.66683M3.00004 13.0002C2.07957 13.0002 1.33337 12.254 1.33337 11.3335C1.33337 10.413 2.07957 9.66683 3.00004 9.66683M3.00004 13.0002V14.6668M3.00004 9.66683V1.3335M8.00004 6.3335V14.6668M13 13.0002C13.9205 13.0002 14.6667 12.254 14.6667 11.3335C14.6667 10.413 13.9205 9.66683 13 9.66683M13 13.0002C12.0796 13.0002 11.3334 12.254 11.3334 11.3335C11.3334 10.413 12.0796 9.66683 13 9.66683M13 13.0002V14.6668M13 9.66683V1.3335" stroke="#878787" stroke-width="1.5" stroke-linecap="round" stroke-linejoin="round"/>
</svg>
