<svg width="172" height="128" viewBox="0 0 172 128" fill="none" xmlns="http://www.w3.org/2000/svg">
<circle cx="86" cy="64" r="64" fill="#FFAF0B" fill-opacity="0.14"/>
<circle cx="20" cy="20" r="6" fill="#FE8C00"/>
<circle cx="17" cy="112" r="8" fill="#FE8C00"/>
<circle cx="160" cy="36" r="8" fill="#FE8C00"/>
<circle cx="149" cy="9" r="5" fill="#FE8C00"/>
<path fill-rule="evenodd" clip-rule="evenodd" d="M88 16C74.534 16 62.6222 22.6541 55.3733 32.8536C53.0062 32.2954 50.5376 32 48 32C30.3269 32 16 46.3269 16 64C16 81.6731 30.3269 96 48 96H128C143.464 96 156 83.464 156 68C156 52.536 143.464 40 128 40C126.902 40 125.818 40.0633 124.752 40.1863C118.623 25.9596 104.475 16 88 16Z" fill="#F9F5FF"/>
<circle cx="48" cy="64" r="32" fill="url(#paint0_linear_1007_7635)"/>
<circle cx="88" cy="56" r="40" fill="url(#paint1_linear_1007_7635)"/>
<circle cx="128" cy="68" r="28" fill="url(#paint2_linear_1007_7635)"/>
<rect x="58" y="60" width="56" height="56" rx="28" fill="#FE8C00"/>
<path d="M96.5 98.5L92.4168 94.4167M95.3333 87.4167C95.3333 92.8935 90.8935 97.3333 85.4167 97.3333C79.9398 97.3333 75.5 92.8935 75.5 87.4167C75.5 81.9398 79.9398 77.5 85.4167 77.5C90.8935 77.5 95.3333 81.9398 95.3333 87.4167Z" stroke="white" stroke-width="2" stroke-linecap="round" stroke-linejoin="round"/>
<defs>
<linearGradient id="paint0_linear_1007_7635" x1="23.4286" y1="42.8571" x2="80" y2="96" gradientUnits="userSpaceOnUse">
<stop stop-color="#FFAF0B" stop-opacity="0.44"/>
<stop offset="0.997917" stop-color="white" stop-opacity="0"/>
</linearGradient>
<linearGradient id="paint1_linear_1007_7635" x1="57.2857" y1="29.5714" x2="128" y2="95.9999" gradientUnits="userSpaceOnUse">
<stop stop-color="#FFAF0B" stop-opacity="0.44"/>
<stop offset="0.997917" stop-color="white" stop-opacity="0"/>
</linearGradient>
<linearGradient id="paint2_linear_1007_7635" x1="106.5" y1="49.5" x2="156" y2="96" gradientUnits="userSpaceOnUse">
<stop stop-color="#FFAF0B" stop-opacity="0.44"/>
<stop offset="0.997917" stop-color="white" stop-opacity="0"/>
</linearGradient>
</defs>
</svg>
