<svg width="12" height="12" viewBox="0 0 12 12" fill="none" xmlns="http://www.w3.org/2000/svg">
<path d="M9.29981 8.7165C8.87949 9.13682 8.10629 9.91002 7.41396 10.6023C6.63291 11.3834 5.36694 11.3833 4.58589 10.6022C3.90697 9.92331 3.14595 9.1623 2.70015 8.7165C0.877701 6.89405 0.877701 3.93928 2.70015 2.11684C4.5226 0.294388 7.47736 0.294388 9.29981 2.11684C11.1223 3.93928 11.1223 6.89405 9.29981 8.7165Z" stroke="#FE8C00" stroke-width="1.5" stroke-linecap="round" stroke-linejoin="round"/>
<path d="M7.74998 5.41667C7.74998 6.38316 6.96648 7.16667 5.99998 7.16667C5.03348 7.16667 4.24998 6.38316 4.24998 5.41667C4.24998 4.45017 5.03348 3.66667 5.99998 3.66667C6.96648 3.66667 7.74998 4.45017 7.74998 5.41667Z" stroke="#FE8C00" stroke-width="1.5" stroke-linecap="round" stroke-linejoin="round"/>
</svg>
